<svg width="136" height="32" viewBox="0 0 136 32" fill="none" xmlns="http://www.w3.org/2000/svg">
<g clip-path="url(#clip0_2801_37006)">
<path d="M22.7531 0V4.50743H30.6687V8.38275H22.7531V13.6107H32.1074V17.486H19.6042C19.0379 20.5074 17.7524 23.336 16.3657 26.0486L24.9111 25.0569L22.5725 20.0102L26.7167 19.2447C28.7635 22.8126 30.3943 26.6256 31.7448 30.5154L27.6498 31.8797L26.4726 28.8336L9.80642 31.2693L8.98886 26.9489L11.5845 26.6647C13.1272 23.7724 14.4244 20.7104 15.1061 17.4846H9.43953V13.6093H18.3446V8.3813H10.7887V4.50598H18.3446V0H22.7516H22.7531Z" fill="#00428C"/>
<path d="M131.142 3.60565C130.962 9.20913 129.623 14.7503 126.471 19.4157L136 26.0051V31.3679L123.721 22.7358C118.864 27.5375 112.426 30.3458 105.687 31.278V26.8619C110.25 26.0747 114.878 24.4857 118.502 21.5411C122.698 18.1312 125.214 13.2033 125.925 7.84197H108.025V3.60565H131.142Z" fill="#00428C"/>
<path d="M100.38 12.1682C100.351 15.423 100.63 18.5647 99.7051 21.7224C98.2188 26.7981 94.0818 30.0341 88.9728 30.9779C84.7535 31.7579 80.2815 31.3447 76.003 31.4578V27.3113L83.1574 27.3157C86.809 27.0895 91.0716 26.6792 93.5893 23.7071C95.2909 21.6977 95.9582 18.9155 95.8816 16.3146H70.6961V12.1682H100.38Z" fill="#00428C"/>
<path d="M66.198 12.2581V16.4045H53.9649C53.9649 19.9072 53.9173 24.2378 51.6235 27.0837C48.4803 30.9837 42.9769 31.3722 38.3142 31.5477V27.3113C41.1468 27.2809 44.6886 27.133 46.9073 25.1497C49.2777 23.0315 49.2733 19.3592 49.2892 16.4045H35.1668V12.2581H66.1995H66.198Z" fill="#00428C"/>
<path d="M64.4892 2.8851H37.0547V7.03153H64.4892V2.8851Z" fill="#00428C"/>
<path d="M98.4903 2.79377H72.7645V6.9402H98.4903V2.79377Z" fill="#00428C"/>
<path d="M9.52909 20.1972C8.10052 24.071 6.58384 28.2334 4.1167 31.5767C4.04159 31.6781 3.84659 32.042 3.73103 31.9971L0.439115 28.7133C0.365448 28.6408 0.336559 28.5596 0.364003 28.4567C0.388559 28.3668 1.34479 27.2128 1.50801 26.9793C3.38436 24.2929 4.84904 21.4382 5.92805 18.3356L9.52909 20.1972Z" fill="#00428C"/>
<path d="M0 12.0348L2.19702 8.56832L8.08318 12.9888L5.79805 16.6756L0 12.0348Z" fill="#00428C"/>
<path d="M6.82073 8.28126C6.74417 8.3262 6.63728 8.29141 6.56217 8.24791C4.98771 6.81841 3.3237 5.46575 1.53402 4.31606L3.74115 0.733599C4.06615 0.672707 8.54541 4.11018 9.06686 4.65531L6.82073 8.28126Z" fill="#00428C"/>
</g>
<defs>
<clipPath id="clip0_2801_37006">
<rect width="136" height="32" fill="white"/>
</clipPath>
</defs>
</svg>
