<svg width="32" height="32" viewBox="0 0 32 32" fill="none" xmlns="http://www.w3.org/2000/svg">
<circle cx="16" cy="16" r="16" fill="#E8F1FE"/>
<mask id="mask0_2801_37256" style="mask-type:alpha" maskUnits="userSpaceOnUse" x="3" y="3" width="27" height="27">
<rect x="3.31024" y="3.3099" width="26.4828" height="26.4828" fill="#D9D9D9"/>
</mask>
<g mask="url(#mask0_2801_37256)">
<path d="M8.8275 25.3789V17.6547H6.62061V15.4478H13.2413V17.6547H11.0344V25.3789H8.8275ZM8.8275 13.2409V7.72369H11.0344V13.2409H8.8275ZM13.2413 13.2409V11.034H15.4482V7.72369H17.6551V11.034H19.862V13.2409H13.2413ZM15.4482 25.3789V15.4478H17.6551V25.3789H15.4482ZM22.0689 25.3789V22.0685H19.862V19.8616H26.4827V22.0685H24.2758V25.3789H22.0689ZM22.0689 17.6547V7.72369H24.2758V17.6547H22.0689Z" fill="#00118F"/>
</g>
</svg>
